HIERARCHY
ROOT mixamorig:Hips
{
	OFFSET 0.000000 201.639420 0.000000
	CHANNELS 6 Xposition Yposition Zposition Xrotation Yrotation Zrotation
	JOINT mixamorig:Spine
	{
		OFFSET 0.006200 19.524994 -2.481800
		CHANNELS 3 Xrotation Yrotation Zrotation
		JOINT mixamorig:Spine1
		{
			OFFSET -0.000900 22.835007 -2.825400
			CHANNELS 3 Xrotation Yrotation Zrotation
			JOINT mixamorig:Spine2
			{
				OFFSET -0.020600 26.552490 -3.193300
				CHANNELS 3 Xrotation Yrotation Zrotation
				JOINT mixamorig:Neck
				{
					OFFSET -0.060000 30.701813 1.352200
					CHANNELS 3 Xrotation Yrotation Zrotation
					JOINT mixamorig:Head
					{
						OFFSET -0.087200 22.547607 3.670900
						CHANNELS 3 Xrotation Yrotation Zrotation
						JOINT mixamorig:HeadTop_End
						{
							OFFSET -0.830600 40.355194 7.893500
							CHANNELS 3 Xrotation Yrotation Zrotation
							End Site
							{
								OFFSET 0.000000 30.592346 0.000000
							}
						}
						JOINT mixamorig:RightEye
						{
							OFFSET -6.302100 18.118591 16.197100
							CHANNELS 3 Xrotation Yrotation Zrotation
							End Site
							{
								OFFSET 0.000000 30.592346 0.000000
							}
						}
						JOINT mixamorig:LeftEye
						{
							OFFSET 6.741500 18.382690 16.401899
							CHANNELS 3 Xrotation Yrotation Zrotation
							End Site
							{
								OFFSET 0.000000 30.592346 0.000000
							}
						}
					}
				}
				JOINT mixamorig:LeftShoulder
				{
					OFFSET 11.924900 18.230499 1.425400
					CHANNELS 3 Xrotation Yrotation Zrotation
					JOINT mixamorig:LeftArm
					{
						OFFSET 25.435989 -0.697632 -5.229300
						CHANNELS 3 Xrotation Yrotation Zrotation
						JOINT mixamorig:LeftForeArm
						{
							OFFSET 54.684776 0.000000 0.000000
							CHANNELS 3 Xrotation Yrotation Zrotation
							JOINT mixamorig:LeftHand
							{
								OFFSET 55.098175 0.000000 0.000000
								CHANNELS 3 Xrotation Yrotation Zrotation
								JOINT mixamorig:LeftHandMiddle1
								{
									OFFSET 23.369751 0.000000 0.000000
									CHANNELS 3 Xrotation Yrotation Zrotation
									JOINT mixamorig:LeftHandMiddle2
									{
										OFFSET 6.378677 0.000000 0.000000
										CHANNELS 3 Xrotation Yrotation Zrotation
										JOINT mixamorig:LeftHandMiddle3
										{
											OFFSET 6.148331 0.000000 0.000000
											CHANNELS 3 Xrotation Yrotation Zrotation
											JOINT mixamorig:LeftHandMiddle4
											{
												OFFSET 6.582504 0.000000 0.000000
												CHANNELS 3 Xrotation Yrotation Zrotation
												End Site
												{
													OFFSET -1.168900 6.395691 1.028606
												}
											}
										}
									}
								}
								JOINT mixamorig:LeftHandThumb1
								{
									OFFSET 7.235672 -3.848206 5.434273
									CHANNELS 3 Xrotation Yrotation Zrotation
									JOINT mixamorig:LeftHandThumb2
									{
										OFFSET 6.568451 -3.792297 3.792300
										CHANNELS 3 Xrotation Yrotation Zrotation
										JOINT mixamorig:LeftHandThumb3
										{
											OFFSET 6.063080 -3.500519 3.500518
											CHANNELS 3 Xrotation Yrotation Zrotation
											JOINT mixamorig:LeftHandThumb4
											{
												OFFSET 4.793182 -2.767334 2.767349
												CHANNELS 3 Xrotation Yrotation Zrotation
												End Site
												{
													OFFSET 0.101639 6.054260 1.275483
												}
											}
										}
									}
								}
								JOINT mixamorig:LeftHandIndex1
								{
									OFFSET 23.101074 -0.309540 4.992809
									CHANNELS 3 Xrotation Yrotation Zrotation
									JOINT mixamorig:LeftHandIndex2
									{
										OFFSET 6.226883 0.000000 0.000000
										CHANNELS 3 Xrotation Yrotation Zrotation
										JOINT mixamorig:LeftHandIndex3
										{
											OFFSET 6.094330 0.000000 0.000000
											CHANNELS 3 Xrotation Yrotation Zrotation
											JOINT mixamorig:LeftHandIndex4
											{
												OFFSET 5.482605 0.000000 0.000000
												CHANNELS 3 Xrotation Yrotation Zrotation
												End Site
												{
													OFFSET -1.427902 5.233032 0.797164
												}
											}
										}
									}
								}
								JOINT mixamorig:LeftHandRing1
								{
									OFFSET 22.299240 0.021149 -3.964172
									CHANNELS 3 Xrotation Yrotation Zrotation
									JOINT mixamorig:LeftHandRing2
									{
										OFFSET 6.321869 0.000000 0.000000
										CHANNELS 3 Xrotation Yrotation Zrotation
										JOINT mixamorig:LeftHandRing3
										{
											OFFSET 5.899796 0.000000 0.000000
											CHANNELS 3 Xrotation Yrotation Zrotation
											JOINT mixamorig:LeftHandRing4
											{
												OFFSET 6.517899 0.000000 0.000000
												CHANNELS 3 Xrotation Yrotation Zrotation
												End Site
												{
													OFFSET -1.637299 6.232208 0.980890
												}
											}
										}
									}
								}
								JOINT mixamorig:LeftHandPinky1
								{
									OFFSET 20.463791 -0.302338 -8.562233
									CHANNELS 3 Xrotation Yrotation Zrotation
									JOINT mixamorig:LeftHandPinky2
									{
										OFFSET 6.908646 0.000000 0.000000
										CHANNELS 3 Xrotation Yrotation Zrotation
										JOINT mixamorig:LeftHandPinky3
										{
											OFFSET 4.622849 0.000000 0.000000
											CHANNELS 3 Xrotation Yrotation Zrotation
											JOINT mixamorig:LeftHandPinky4
											{
												OFFSET 5.216080 0.000000 0.000000
												CHANNELS 3 Xrotation Yrotation Zrotation
												End Site
												{
													OFFSET -0.606308 5.116241 0.814926
												}
											}
										}
									}
								}
							}
						}
					}
				}
				JOINT mixamorig:RightShoulder
				{
					OFFSET -12.001300 18.284088 1.348900
					CHANNELS 3 Xrotation Yrotation Zrotation
					JOINT mixamorig:RightArm
					{
						OFFSET -25.308500 -0.751312 -5.164599
						CHANNELS 3 Xrotation Yrotation Zrotation
						JOINT mixamorig:RightForeArm
						{
							OFFSET -54.684429 0.000000 0.000000
							CHANNELS 3 Xrotation Yrotation Zrotation
							JOINT mixamorig:RightHand
							{
								OFFSET -55.150291 0.000000 0.000000
								CHANNELS 3 Xrotation Yrotation Zrotation
								JOINT mixamorig:RightHandMiddle1
								{
									OFFSET -23.317566 0.000000 0.000000
									CHANNELS 3 Xrotation Yrotation Zrotation
									JOINT mixamorig:RightHandMiddle2
									{
										OFFSET -6.378403 0.000000 0.000000
										CHANNELS 3 Xrotation Yrotation Zrotation
										JOINT mixamorig:RightHandMiddle3
										{
											OFFSET -6.148193 0.000000 0.000000
											CHANNELS 3 Xrotation Yrotation Zrotation
											JOINT mixamorig:RightHandMiddle4
											{
												OFFSET -6.583389 0.000000 0.000000
												CHANNELS 3 Xrotation Yrotation Zrotation
												End Site
												{
													OFFSET 1.171692 6.395905 1.029786
												}
											}
										}
									}
								}
								JOINT mixamorig:RightHandThumb1
								{
									OFFSET -7.190521 -3.860474 5.435846
									CHANNELS 3 Xrotation Yrotation Zrotation
									JOINT mixamorig:RightHandThumb2
									{
										OFFSET -6.567429 -3.791718 3.791708
										CHANNELS 3 Xrotation Yrotation Zrotation
										JOINT mixamorig:RightHandThumb3
										{
											OFFSET -6.062469 -3.500153 3.500166
											CHANNELS 3 Xrotation Yrotation Zrotation
											JOINT mixamorig:RightHandThumb4
											{
												OFFSET -4.792618 -2.767029 2.767022
												CHANNELS 3 Xrotation Yrotation Zrotation
												End Site
												{
													OFFSET -0.100327 6.053253 1.276754
												}
											}
										}
									}
								}
								JOINT mixamorig:RightHandIndex1
								{
									OFFSET -23.048981 -0.310791 4.992554
									CHANNELS 3 Xrotation Yrotation Zrotation
									JOINT mixamorig:RightHandIndex2
									{
										OFFSET -6.227539 0.000000 0.000000
										CHANNELS 3 Xrotation Yrotation Zrotation
										JOINT mixamorig:RightHandIndex3
										{
											OFFSET -6.095047 0.000000 0.000000
											CHANNELS 3 Xrotation Yrotation Zrotation
											JOINT mixamorig:RightHandIndex4
											{
												OFFSET -5.484772 0.000000 0.000000
												CHANNELS 3 Xrotation Yrotation Zrotation
												End Site
												{
													OFFSET 1.420593 5.237305 0.797056
												}
											}
										}
									}
								}
								JOINT mixamorig:RightHandRing1
								{
									OFFSET -22.246323 0.020569 -3.963762
									CHANNELS 3 Xrotation Yrotation Zrotation
									JOINT mixamorig:RightHandRing2
									{
										OFFSET -6.322128 0.000000 0.000000
										CHANNELS 3 Xrotation Yrotation Zrotation
										JOINT mixamorig:RightHandRing3
										{
											OFFSET -5.900024 0.000000 0.000000
											CHANNELS 3 Xrotation Yrotation Zrotation
											JOINT mixamorig:RightHandRing4
											{
												OFFSET -6.518356 0.000000 0.000000
												CHANNELS 3 Xrotation Yrotation Zrotation
												End Site
												{
													OFFSET 1.636398 6.232697 0.982186
												}
											}
										}
									}
								}
								JOINT mixamorig:RightHandPinky1
								{
									OFFSET -20.411011 -0.303314 -8.561701
									CHANNELS 3 Xrotation Yrotation Zrotation
									JOINT mixamorig:RightHandPinky2
									{
										OFFSET -6.907349 0.000000 0.000000
										CHANNELS 3 Xrotation Yrotation Zrotation
										JOINT mixamorig:RightHandPinky3
										{
											OFFSET -4.623840 0.000000 0.000000
											CHANNELS 3 Xrotation Yrotation Zrotation
											JOINT mixamorig:RightHandPinky4
											{
												OFFSET -5.218353 0.000000 0.000000
												CHANNELS 3 Xrotation Yrotation Zrotation
												End Site
												{
													OFFSET 0.602097 5.118835 0.816273
												}
											}
										}
									}
								}
							}
						}
					}
				}
			}
		}
	}
	JOINT mixamorig:LeftUpLeg
	{
		OFFSET 18.168400 -13.561905 -0.039000
		CHANNELS 3 Xrotation Yrotation Zrotation
		JOINT mixamorig:LeftLeg
		{
			OFFSET 0.577358 -80.825211 -3.695000
			CHANNELS 3 Xrotation Yrotation Zrotation
			JOINT mixamorig:LeftFoot
			{
				OFFSET -0.577356 -83.370262 -6.520700
				CHANNELS 3 Xrotation Yrotation Zrotation
				JOINT mixamorig:LeftToeBase
				{
					OFFSET 0.750401 -20.798306 25.135401
					CHANNELS 3 Xrotation Yrotation Zrotation
					JOINT mixamorig:LeftToe_End
					{
						OFFSET -0.000500 0.001200 19.917799
						CHANNELS 3 Xrotation Yrotation Zrotation
						End Site
						{
							OFFSET 0.000000 19.917805 0.000000
						}
					}
				}
			}
		}
	}
	JOINT mixamorig:RightUpLeg
	{
		OFFSET -18.162500 -13.585098 -0.041000
		CHANNELS 3 Xrotation Yrotation Zrotation
		JOINT mixamorig:RightLeg
		{
			OFFSET -0.595024 -80.945297 -3.631900
			CHANNELS 3 Xrotation Yrotation Zrotation
			JOINT mixamorig:RightFoot
			{
				OFFSET 0.595024 -83.218193 -6.561200
				CHANNELS 3 Xrotation Yrotation Zrotation
				JOINT mixamorig:RightToeBase
				{
					OFFSET -0.753601 -20.807106 25.115000
					CHANNELS 3 Xrotation Yrotation Zrotation
					JOINT mixamorig:RightToe_End
					{
						OFFSET 0.000299 0.001700 19.918200
						CHANNELS 3 Xrotation Yrotation Zrotation
						End Site
						{
							OFFSET 0.000000 19.918203 0.000000
						}
					}
				}
			}
		}
	}
}
MOTION
Frames: 5
Frame Time: 0.033333
17.027851 176.973083 266.308075 13.519080 30.295092 -2.609474 5.552685 -2.796823 6.732741 10.482613 -8.362704 10.484014 10.557774 -8.430110 10.355763 -15.304369 -1.576162 1.651825 -2.359347 -4.365770 -2.825476 -0.000002 -0.000000 0.000001 -0.000002 -0.000000 0.000001 -0.000002 -0.000000 0.000001 1.081552 -3.018663 -7.281110 -19.750423 -13.745551 -37.566693 -0.000002 -40.956123 -0.000005 2.527143 -9.555836 -11.463281 0.205262 1.671878 -13.996657 0.159706 1.477315 -12.339368 0.053881 0.861482 -7.157681 -0.000002 -0.000000 0.000000 -1.540041 3.690149 6.142349 3.946754 7.971419 0.752850 -0.575604 1.586260 2.542383 0.000003 0.000002 -0.000000 0.149419 1.429475 -11.933585 0.149423 1.429461 -11.933582 0.037444 0.718628 -5.965865 -0.000002 -0.000000 -0.000001 0.392932 2.296929 -19.412448 0.186415 1.594401 -13.335356 0.056778 0.884183 -7.347317 0.000004 0.000000 0.000001 2.856145 6.916309 -28.891420 0.144187 -2.626177 -12.433354 0.037442 0.718636 -5.965857 -0.000003 -0.000001 0.000002 2.102503 4.565065 11.590190 -6.155264 -0.260459 43.478368 0.000002 73.626120 0.000024 1.965144 -7.599989 -14.495084 0.056785 -0.888709 7.312768 0.000002 0.000016 0.000005 0.040195 0.748068 -6.150584 0.000001 0.000001 -0.000001 -1.849255 -3.581790 -6.586132 4.645038 -8.656795 -0.231327 -1.269836 0.126077 -2.098669 -0.000001 0.000001 0.000001 0.000114 -0.040005 0.328282 0.000221 -0.055981 0.459388 0.057735 0.896026 -7.373441 -0.000000 0.000002 -0.000001 0.274627 -1.938553 16.125192 0.000013 0.000010 0.000026 0.044174 0.784261 -6.449558 0.000000 -0.000001 0.000003 0.847952 -3.332629 28.543355 -0.000006 0.000002 -0.000064 0.057731 0.896031 -7.373421 -0.000001 0.000000 -0.000001 8.175212 -5.763404 -10.383492 10.813435 -9.294276 -0.826434 -24.806417 -20.879395 13.862103 -4.803918 0.000007 0.000005 0.000000 0.000000 0.000000 -61.695897 -5.384095 -3.213113 47.006171 -5.937205 -0.319050 -0.411772 -0.942620 -6.168487 0.022424 -0.000002 -0.000004 0.000000 -0.000001 0.000000 
18.559092 174.831131 276.459198 13.207409 29.117516 -0.790397 5.697369 -3.174447 6.492010 10.588972 -9.445176 9.502413 10.661951 -9.523267 9.340465 -16.535815 -0.680697 0.145142 -4.656389 -3.113310 -4.203728 0.000001 -0.000001 -0.000000 0.000001 -0.000001 -0.000000 0.000001 -0.000001 -0.000000 1.014218 -2.216482 -7.484458 -17.422957 -9.340272 -33.584218 -0.000004 -48.317182 -0.000011 1.241653 -8.536434 -8.658569 0.138959 1.379041 -11.506621 0.092501 1.127134 -9.383032 0.030228 0.645770 -5.359195 -0.000000 -0.000001 0.000001 -1.540044 3.690151 6.142347 3.946753 7.971420 0.752845 -0.575608 1.586256 2.542383 -0.000001 -0.000000 -0.000004 0.082674 1.065987 -8.869660 0.082674 1.066011 -8.869659 0.020695 0.534595 -4.434435 -0.000002 0.000003 -0.000004 0.299253 2.011605 -16.920660 0.113115 1.245484 -10.378707 0.032391 0.668552 -5.548834 -0.000002 -0.000001 0.000001 2.489051 6.689874 -25.793214 0.074225 -2.989037 -9.374276 0.020685 0.534602 -4.434436 -0.000002 -0.000000 0.000002 2.076399 4.412691 11.608407 -3.165359 1.341288 45.792392 -0.000013 74.887444 0.000012 3.179186 -7.670094 -16.155363 0.036424 -0.712128 5.853919 0.000000 0.000007 -0.000014 0.053844 0.865469 -7.120635 0.000000 -0.000001 -0.000001 -1.849248 -3.581791 -6.586129 4.645032 -8.656799 -0.231319 -1.269833 0.126078 -2.098673 0.000000 0.000001 -0.000005 0.002301 0.178750 -1.466846 -0.000002 0.000008 -0.000018 0.072622 1.004387 -8.271259 0.000002 0.000002 -0.000003 0.227418 -1.767195 14.665121 0.000015 0.000007 0.000077 0.056790 0.888886 -7.314417 0.000001 -0.000002 0.000002 0.746291 -3.138843 26.742479 0.000001 0.000024 0.000037 0.072628 1.004396 -8.271229 -0.000005 0.000002 0.000001 16.637629 -6.457684 -9.669167 -0.081149 -10.046671 -1.057491 -19.707563 -20.106158 13.590426 -12.924130 -0.000000 0.000004 0.000000 0.000000 -0.000000 -62.404488 -4.602958 0.236159 46.040154 -8.817783 -0.581407 2.276746 -4.090343 -9.332603 -0.000026 0.000005 0.000003 -0.000000 0.000000 -0.000000 
19.601728 172.931808 286.705780 12.174281 27.720832 0.563716 6.088805 -3.448997 6.249552 11.157481 -10.184068 8.346133 11.226643 -10.254616 8.154908 -17.786041 0.019285 -0.954602 -7.305064 -1.941659 -4.174406 -0.000001 -0.000000 0.000000 -0.000001 -0.000000 0.000000 -0.000001 -0.000000 0.000000 0.993379 -1.470927 -7.901025 -14.531823 -3.915226 -29.237267 0.000000 -58.883887 -0.000021 -1.973413 -9.590725 -6.403362 0.090193 1.113049 -9.264719 0.047526 0.809200 -6.721272 0.014716 0.450995 -3.739688 -0.000000 -0.000000 0.000000 -1.540039 3.690152 6.142344 3.946752 7.971416 0.752857 -0.575607 1.586257 2.542378 0.000000 -0.000003 -0.000002 0.039292 0.736041 -6.110996 0.039295 0.736039 -6.111019 0.009822 0.368531 -3.055378 0.000001 0.000001 -0.000006 0.225580 1.751416 -14.677392 0.062613 0.928370 -7.716763 0.016265 0.473812 -3.929293 -0.000003 -0.000001 0.000001 2.169570 6.469346 -23.005663 0.027842 -3.318587 -6.618840 0.009826 0.368541 -3.055367 0.000001 0.000000 0.000000 2.081012 4.436619 11.609255 -1.147418 2.021486 48.987141 0.000028 75.232724 -0.000033 2.753737 -7.321896 -17.434504 0.025307 -0.593926 4.879657 0.000005 0.000013 0.000005 0.064076 0.943738 -7.768603 0.000002 -0.000000 0.000001 -1.849253 -3.581792 -6.586130 4.645036 -8.656799 -0.231319 -1.269835 0.126082 -2.098670 -0.000001 0.000003 -0.000001 0.007563 0.324774 -2.665810 -0.000004 -0.000005 0.000062 0.083517 1.076629 -8.870960 -0.000000 0.000002 -0.000001 0.198330 -1.652090 13.690104 -0.000004 -0.000013 0.000072 0.066134 0.958666 -7.892131 0.000000 -0.000001 0.000002 0.681819 -3.007676 25.540073 0.000003 0.000002 0.000009 0.083517 1.076631 -8.870941 -0.000003 0.000000 0.000001 21.027731 -6.129970 -8.005100 -2.085243 -9.390052 -1.378842 -18.459758 -23.223982 12.220981 -13.272901 -0.000009 0.000000 -0.000000 -0.000000 -0.000000 -62.110988 -3.051610 4.484378 48.998496 -9.726428 -0.805615 -1.036160 -8.847253 -10.972348 -0.010650 0.000003 -0.000003 0.000000 0.000001 0.000000 
19.714317 171.394791 296.893890 10.883625 26.336796 1.415241 6.587783 -3.550481 5.883872 11.946149 -10.362804 6.901835 12.008638 -10.408871 6.696272 -18.744013 0.315982 -1.467515 -9.518032 -1.462876 -2.533438 -0.000000 0.000000 -0.000000 -0.000000 0.000000 -0.000000 -0.000000 0.000000 -0.000000 0.986580 -0.937799 -8.228798 -13.943980 1.154689 -26.199836 0.000039 -68.194494 0.000042 -4.991808 -11.900396 -5.481836 0.066571 0.957093 -7.957100 0.028113 0.622892 -5.168725 0.008230 0.337158 -2.795001 0.000003 -0.000001 0.000003 -1.540043 3.690153 6.142347 3.946754 7.971417 0.752853 -0.575607 1.586255 2.542379 0.000001 -0.000000 0.000003 0.021328 0.542739 -4.501955 0.021338 0.542719 -4.501949 0.005336 0.271581 -2.250941 -0.000001 0.000002 -0.000002 0.187337 1.598377 -13.369097 0.039967 0.742413 -6.164120 0.009400 0.360011 -2.984607 -0.000002 0.000001 -0.000002 1.988392 6.333704 -21.380686 0.008119 -3.511756 -5.011203 0.005319 0.271564 -2.250937 -0.000001 0.000000 0.000001 2.096728 4.524369 11.604588 -0.148270 1.670687 52.941449 0.000025 74.217081 -0.000024 1.089875 -7.166547 -18.438821 0.018895 -0.513361 4.216351 -0.000003 0.000008 -0.000025 0.071550 0.996969 -8.209749 0.000003 -0.000001 0.000001 -1.849255 -3.581790 -6.586131 4.645039 -8.656796 -0.231317 -1.269835 0.126076 -2.098668 -0.000002 -0.000001 0.000000 0.012882 0.424086 -3.482150 0.000003 0.000000 0.000038 0.091365 1.125752 -9.279223 0.000003 0.000000 -0.000001 0.179643 -1.573455 13.026322 0.000007 -0.000005 -0.000011 0.072862 1.006103 -8.285402 -0.000000 -0.000004 0.000004 0.639516 -2.917615 24.721569 -0.000004 0.000004 0.000050 0.091365 1.125746 -9.279244 0.000001 0.000001 -0.000001 7.071125 -3.900931 -4.740296 29.372665 -9.470859 -1.626688 -26.796400 -29.395994 -2.531426 -26.252022 -0.000008 0.000001 0.000001 -0.000001 0.000000 -60.737403 -1.753282 8.774969 53.327091 -9.795670 -0.950316 -6.112612 -12.449947 -11.964842 -0.060488 -0.000002 0.000005 0.000000 -0.000001 -0.000000 
18.832958 169.632050 306.096252 10.016945 24.977430 1.648600 6.962480 -3.460564 5.619481 12.510118 -9.963472 4.972970 12.558724 -9.978802 4.777299 -19.181309 0.208402 -1.500852 -10.666922 -1.927048 0.310274 0.000000 0.000000 -0.000001 0.000000 0.000000 -0.000001 0.000000 0.000000 -0.000001 0.975529 -0.702731 -8.326951 -16.579374 4.901612 -25.036301 -0.000019 -73.644056 -0.000019 -6.857290 -13.433899 -5.819308 0.063675 0.936249 -7.782534 0.025913 0.597983 -4.961461 0.007505 0.321954 -2.668881 0.000007 0.000000 -0.000003 -1.540041 3.690151 6.142348 3.946754 7.971419 0.752851 -0.575604 1.586260 2.542374 0.000002 -0.000002 -0.000000 0.019355 0.516884 -4.287137 0.019347 0.516860 -4.287155 0.004835 0.258648 -2.143517 -0.000003 0.000003 -0.000003 0.182503 1.577884 -13.194435 0.037332 0.717533 -5.956871 0.008602 0.344822 -2.858493 0.000002 0.000002 -0.000002 1.964493 6.315189 -21.163802 0.005907 -3.537551 -4.796537 0.004849 0.258612 -2.143519 -0.000001 -0.000001 0.000003 2.094043 4.511444 11.603663 0.529828 0.870202 57.084566 0.000015 72.050532 -0.000002 -1.269732 -7.247410 -19.368514 0.014367 -0.447634 3.675638 -0.000006 0.000010 0.000034 0.077949 1.040319 -8.569382 0.000001 -0.000002 0.000000 -1.849253 -3.581789 -6.586128 4.645035 -8.656794 -0.231323 -1.269834 0.126078 -2.098671 -0.000001 -0.000000 0.000002 0.018286 0.505007 -4.147631 0.000005 -0.000011 0.000035 0.098016 1.165748 -9.612077 0.000001 0.000000 0.000004 0.165094 -1.509187 12.485256 -0.000001 0.000017 -0.000044 0.078606 1.044731 -8.606083 -0.000001 0.000000 0.000003 0.605990 -2.843761 24.054441 0.000001 0.000007 0.000011 0.098020 1.165741 -9.612097 -0.000001 -0.000001 0.000001 -3.213754 -4.833271 0.643115 46.770888 -11.780556 -2.188837 -20.881995 -29.445861 -17.967608 -53.377160 -0.000020 0.000008 -0.000000 -0.000001 0.000000 -59.129767 -1.594571 12.471902 57.557956 -10.137335 -1.026265 -11.378168 -13.339793 -13.048942 -0.089972 -0.000001 0.000002 -0.000000 -0.000000 0.000000 
